<svg width="109" height="40" viewBox="0 0 109 40" fill="none" xmlns="http://www.w3.org/2000/svg">
<path d="M32 0.25H8C3.71979 0.25 0.25 3.71979 0.25 8V32C0.25 36.2802 3.71979 39.75 8 39.75H32C36.2802 39.75 39.75 36.2802 39.75 32V8C39.75 3.71979 36.2802 0.25 32 0.25Z" fill="white"/>
<path d="M32 0.25H8C3.71979 0.25 0.25 3.71979 0.25 8V32C0.25 36.2802 3.71979 39.75 8 39.75H32C36.2802 39.75 39.75 36.2802 39.75 32V8C39.75 3.71979 36.2802 0.25 32 0.25Z" stroke="#E7EAF0" stroke-width="0.5"/>
<path d="M20 36C28.8365 36 36 28.8365 36 20C36 11.1635 28.8365 4 20 4C11.1635 4 4 11.1635 4 20C4 28.8365 11.1635 36 20 36Z" fill="#8B5CF6"/>
<path d="M20.0001 33C27.1797 33 33 27.1797 33 20.0001C33 12.8203 27.1797 7 20.0001 7C12.8203 7 7 12.8204 7 20.0001C7 27.1797 12.8204 33 20.0001 33Z" fill="#C4B5FD"/>
<path d="M20.0001 30.0002C25.5229 30.0002 30.0002 25.5229 30.0002 20.0001C30.0002 14.4773 25.5229 10.0002 20.0001 10.0002C14.4773 10.0002 10.0002 14.4773 10.0002 20.0001C10.0002 25.5229 14.4773 30.0002 20.0001 30.0002Z" fill="white"/>
<path d="M52.1 30V10.08H55.852V19.804L64.64 10.08H69.652L60.724 19.748L70 30H64.988L57.876 22.016L55.852 24.144V30H52.1ZM71.992 30V10.08H75.744V30H71.992ZM81.14 12.708C80.224 12.708 79.616 12.176 79.616 11.34C79.616 10.504 80.224 9.972 81.14 9.972C82.028 9.972 82.664 10.504 82.664 11.34C82.664 12.176 82.028 12.708 81.14 12.708ZM79.252 30V15.048H83.0V30H79.252ZM86.8741 34.2V15.048H90.3181L90.3741 17.26C91.2421 15.608 92.8941 14.712 94.8541 14.712C99.1101 14.712 101.21 18.212 101.21 22.524C101.21 26.836 99.0821 30.336 94.8261 30.336C92.9221 30.336 91.2701 29.412 90.4581 27.956V34.2H86.8741ZM93.9861 27.424C96.1701 27.424 97.4861 25.604 97.4861 22.524C97.4861 19.444 96.1701 17.624 93.9861 17.624C91.8021 17.624 90.4581 19.276 90.4581 22.524C90.4581 25.772 91.7741 27.424 93.9861 27.424Z" fill="white"/>
</svg>
